<?xml version="1.0" encoding="UTF-8" standalone="no"?><!DOCTYPE svg PUBLIC "-//W3C//DTD SVG 1.1//EN" "http://www.w3.org/Graphics/SVG/1.1/DTD/svg11.dtd"><svg width="100%" height="100%" viewBox="0 0 36 36" version="1.1" xmlns="http://www.w3.org/2000/svg" xmlns:xlink="http://www.w3.org/1999/xlink" xml:space="preserve" xmlns:serif="http://www.serif.com/" style="fill-rule:evenodd;clip-rule:evenodd;stroke-linecap:round;stroke-linejoin:round;stroke-miterlimit:1.5;"><path id="Shape" d="M26.706,16.664l-14.772,14.772l-7.385,0l0,-7.386l14.771,-14.771l7.386,7.385Zm-14.08,10.875l-4.18,-4.18l-1.603,1.602l0,1.918l2.263,0l0,2.262l1.917,0l1.603,-1.602Zm7.26,-15.243c-0.095,0 -0.22,0.031 -0.315,0.125l-9.585,9.618c-0.095,0.062 -0.126,0.188 -0.126,0.282c0,0.22 0.157,0.378 0.377,0.378c0.094,0 0.22,-0.032 0.314,-0.126l9.618,-9.617c0.062,-0.063 0.094,-0.157 0.094,-0.283c0,-0.22 -0.157,-0.377 -0.377,-0.377Zm10.905,0.283l-2.954,2.954l-7.386,-7.386l2.955,-2.923c0.408,-0.44 1.005,-0.66 1.603,-0.66c0.597,0 1.194,0.252 1.602,0.66l4.18,4.149c0.409,0.44 0.66,1.006 0.66,1.603c0,0.597 -0.251,1.194 -0.66,1.603Z" style="fill:#8e8d8a;"/><path d="M35.5,9.25c0,-4.829 -3.921,-8.75 -8.75,-8.75l-17.5,0c-4.829,0 -8.75,3.921 -8.75,8.75l0,17.5c0,4.829 3.921,8.75 8.75,8.75l17.5,0c4.829,0 8.75,-3.921 8.75,-8.75l0,-17.5Z" style="fill:none;stroke:#8e8d8a;stroke-width:1px;"/></svg>