<?xml version="1.0" encoding="UTF-8" standalone="no"?><!DOCTYPE svg PUBLIC "-//W3C//DTD SVG 1.1//EN" "http://www.w3.org/Graphics/SVG/1.1/DTD/svg11.dtd"><svg width="100%" height="100%" viewBox="0 0 36 36" version="1.1" xmlns="http://www.w3.org/2000/svg" xmlns:xlink="http://www.w3.org/1999/xlink" xml:space="preserve" xmlns:serif="http://www.serif.com/" style="fill-rule:evenodd;clip-rule:evenodd;stroke-linecap:round;stroke-linejoin:round;stroke-miterlimit:1.5;"><path d="M35.5,9.25c0,-4.829 -3.921,-8.75 -8.75,-8.75l-17.5,0c-4.829,0 -8.75,3.921 -8.75,8.75l0,17.5c0,4.829 3.921,8.75 8.75,8.75l17.5,0c4.829,0 8.75,-3.921 8.75,-8.75l0,-17.5Z" style="fill:none;stroke:#8e8d8a;stroke-width:1px;"/><g><path d="M11.84,16.103l0.029,13.323" style="fill:none;stroke:#8e8d8a;stroke-width:2px;"/><path d="M11.84,16.103l11.669,-4.412l0.156,13.24" style="fill:none;stroke:#8e8d8a;stroke-width:2px;"/><path d="M11.849,21.202l11.71,-4.326" style="fill:none;stroke:#8e8d8a;stroke-width:2px;"/><ellipse cx="20.671" cy="25.4" rx="2.942" ry="1.806" style="fill:none;stroke:#8e8d8a;stroke-width:2px;"/><ellipse cx="8.912" cy="29.764" rx="2.942" ry="1.806" style="fill:none;stroke:#8e8d8a;stroke-width:2px;"/></g><path d="M24.108,8.55l7.143,-0.018" style="fill:none;stroke:#8e8d8a;stroke-width:1.5px;"/><path d="M27.716,5.019l-0.074,7.043" style="fill:none;stroke:#8e8d8a;stroke-width:1.5px;"/></svg>