<?xml version="1.0" encoding="UTF-8" standalone="no"?><!DOCTYPE svg PUBLIC "-//W3C//DTD SVG 1.1//EN" "http://www.w3.org/Graphics/SVG/1.1/DTD/svg11.dtd"><svg width="100%" height="100%" viewBox="0 0 36 36" version="1.1" xmlns="http://www.w3.org/2000/svg" xmlns:xlink="http://www.w3.org/1999/xlink" xml:space="preserve" xmlns:serif="http://www.serif.com/" style="fill-rule:evenodd;clip-rule:evenodd;stroke-linecap:round;stroke-linejoin:round;stroke-miterlimit:1.5;"><path d="M35.5,9.25c0,-4.829 -3.921,-8.75 -8.75,-8.75l-17.5,0c-4.829,0 -8.75,3.921 -8.75,8.75l0,17.5c0,4.829 3.921,8.75 8.75,8.75l17.5,0c4.829,0 8.75,-3.921 8.75,-8.75l0,-17.5Z" style="fill:none;stroke:#8e8d8a;stroke-width:1px;"/><g><path d="M6.269,15.774l0.015,6.911" style="fill:none;stroke:#8e8d8a;stroke-width:1px;"/><path d="M6.269,15.774l6.053,-2.288l0.081,6.867" style="fill:none;stroke:#8e8d8a;stroke-width:1px;"/><path d="M6.274,18.419l6.074,-2.244" style="fill:none;stroke:#8e8d8a;stroke-width:1px;"/><ellipse cx="10.85" cy="20.597" rx="1.526" ry="0.937" style="fill:none;stroke:#8e8d8a;stroke-width:1px;"/><ellipse cx="4.75" cy="22.86" rx="1.526" ry="0.937" style="fill:none;stroke:#8e8d8a;stroke-width:1px;"/></g><path d="M24.108,8.55l7.143,-0.018" style="fill:none;stroke:#8e8d8a;stroke-width:1.5px;"/><g><path d="M15.076,11.156l10.369,-0.026" style="fill:none;stroke:#8e8d8a;stroke-width:1.5px;"/><path d="M15.076,16.399l10.369,-0.026" style="fill:none;stroke:#8e8d8a;stroke-width:1.5px;"/><path d="M15.076,21.643l10.369,-0.026" style="fill:none;stroke:#8e8d8a;stroke-width:1.5px;"/><path d="M15.076,26.886l10.369,-0.026" style="fill:none;stroke:#8e8d8a;stroke-width:1.5px;"/></g><path d="M27.716,5.019l-0.074,7.043" style="fill:none;stroke:#8e8d8a;stroke-width:1.5px;"/></svg>